<svg width="81" height="61" viewBox="0 0 81 61" fill="none" xmlns="http://www.w3.org/2000/svg">
<path fill-rule="evenodd" clip-rule="evenodd" d="M34.8914 3.17413C31.9041 4.91871 29.2611 6.46163 29.0181 6.60267L28.5761 6.85935L28.5753 12.9457L28.5743 19.0319L25.5956 20.7617C23.9573 21.713 22.5566 22.5073 22.4828 22.5268C22.4091 22.5462 20.0287 21.212 17.1931 19.5618C13.8064 17.5908 11.9711 16.5872 11.8437 16.6366C11.737 16.678 10.8485 17.1839 9.86901 17.7608C8.88957 18.3379 6.26841 19.8714 4.0441 21.1687L0 23.5275V30.4359V37.3444L0.442784 37.6325C1.44147 38.2826 11.8619 44.3085 11.9874 44.3085C12.1469 44.3085 20.9004 39.2302 20.8973 39.1395C20.8962 39.1057 20.2306 38.6929 19.4183 38.2222L17.9414 37.3664L15.8118 38.61C14.6405 39.294 13.6455 39.8536 13.6009 39.8536C13.5562 39.8536 13.5313 37.934 13.5453 35.5876L13.5708 31.3216L17.2057 29.1993L20.8404 27.0769L20.8731 28.8187C20.891 29.7768 20.891 31.3021 20.8731 32.2084L20.8404 33.8562L19.4474 33.0364C18.6812 32.5854 18.0076 32.2166 17.9505 32.2166C17.8932 32.2166 17.5237 32.4109 17.1295 32.6482L16.4125 33.0798V33.9449V34.8102L22.4639 38.3385L28.5153 41.8668L28.5743 47.9785L28.6334 54.0903L31.172 55.5743C32.5683 56.3905 35.2384 57.9452 37.1056 59.0292L40.5005 61L43.1865 59.4429C44.6638 58.5865 47.3336 57.0313 49.1195 55.9869L52.3666 54.088L52.4257 47.9781L52.4847 41.8682L58.3255 38.4607C61.538 36.5865 64.2345 35.0267 64.3179 34.9943C64.4316 34.9503 64.4687 35.1251 64.4666 35.6942L64.4636 36.4528L62.2144 37.7507C60.9773 38.4645 60.009 39.0904 60.0624 39.1416C60.2664 39.3368 68.9942 44.3787 69.0621 44.3405C70.4103 43.5812 80.4486 37.721 80.6753 37.5608L81 37.3315V30.4236V23.5157L80.4982 23.2252C79.8269 22.8367 77.1129 21.254 72.7041 18.6801C70.5588 17.4277 68.9997 16.5879 68.8951 16.6286C68.7409 16.6884 67.0006 17.6972 60.18 21.6804C59.347 22.1669 58.6014 22.5484 58.5231 22.5281C58.4447 22.5079 57.0416 21.7127 55.4048 20.7611L52.4291 19.0308L52.426 12.9451L52.4231 6.85935L50.1514 5.53516C48.9019 4.8069 46.2551 3.26315 44.2696 2.10447C42.284 0.945916 40.5837 -0.00107304 40.4911 9.12555e-07C40.3986 0.00119419 37.8787 1.42943 34.8914 3.17413ZM36.8145 5.58373C34.82 6.74479 33.1867 7.72149 33.1851 7.75431C33.1834 7.78712 34.1512 8.37482 35.3356 9.06024C36.52 9.74566 38.1693 10.7015 39.0008 11.1842L40.5125 12.0618L44.1644 9.9379C46.1728 8.76979 47.8154 7.78712 47.8144 7.75431C47.8134 7.72149 47.1635 7.32318 46.3703 6.86901C45.5769 6.41497 43.9349 5.46177 42.7214 4.75094C41.5078 4.0401 40.4982 3.46171 40.4779 3.46565C40.4576 3.46971 38.809 4.42278 36.8145 5.58373ZM45.6068 12.6213L42.035 14.7242V18.9955C42.035 21.3448 42.0582 23.267 42.0867 23.267C42.115 23.267 43.1075 22.7011 44.2919 22.0094L46.4455 20.7518L47.8672 21.58C48.6491 22.0356 49.3033 22.4539 49.3207 22.5095C49.3588 22.6301 40.7182 27.684 40.4845 27.6778C40.2812 27.6725 31.6036 22.6101 31.5626 22.4729C31.5461 22.4174 32.5406 21.7902 33.7729 21.0791L36.0131 19.7863V19.0098V18.2335L35.3184 18.6322C34.9363 18.8514 32.2271 20.427 29.2981 22.1334L23.9727 25.2359L24.0006 30.47L24.0284 35.704L27.0542 37.4666L30.0799 39.2292L35.2897 36.1906L40.4994 33.152L45.6655 36.1641C48.5068 37.8207 50.8848 39.1739 50.9497 39.1713C51.0147 39.1685 52.3961 38.3873 54.0197 37.4351L56.9716 35.7038L56.9997 30.4699L57.0278 25.2359L51.0073 21.731L44.9869 18.2261V17.3139V16.4017L45.6581 15.996C46.0274 15.7728 46.386 15.5914 46.4552 15.5929C46.5243 15.5944 47.1856 15.9524 47.9246 16.3884C48.6635 16.8244 49.2879 17.1812 49.312 17.1812C49.336 17.1812 49.3557 15.6777 49.3557 13.84C49.3557 12.0024 49.3159 10.5033 49.2671 10.5088C49.2184 10.5141 47.5713 11.4648 45.6068 12.6213ZM8.44242 22.1514C6.49417 23.2945 4.83886 24.2683 4.764 24.3153C4.65715 24.3822 10.7634 28.0624 11.8114 28.5626C11.9833 28.6447 12.7567 28.2448 15.373 26.7206C17.2111 25.6497 18.8618 24.6845 19.0411 24.5757L19.3673 24.3776L15.9121 22.3686C14.0118 21.2636 12.3507 20.295 12.2208 20.2161C12.0132 20.0901 11.5584 20.323 8.44242 22.1514ZM65.3641 22.205C63.3633 23.3732 61.7104 24.345 61.6912 24.3647C61.6719 24.3845 63.3026 25.3602 65.3147 26.5331C68.1574 28.1901 69.0213 28.6425 69.1892 28.5617C69.308 28.5045 70.9724 27.546 72.8877 26.4316C75.791 24.7424 76.3378 24.3829 76.1759 24.2703C76.0692 24.196 74.4114 23.2229 72.4918 22.1081L69.002 20.0812L65.3641 22.205ZM74.1516 29.2219L70.5503 31.3383L70.5192 35.6703L70.4883 40.0024L70.7554 39.8289C70.9024 39.7336 72.5768 38.752 74.4763 37.6477L77.93 35.6399V31.3627C77.93 29.0102 77.8902 27.09 77.8415 27.0955C77.7927 27.101 76.1323 28.0579 74.1516 29.2219ZM36.8073 38.8596C34.8099 40.0213 33.2164 41.0105 33.2661 41.0581C33.3158 41.1057 33.994 41.5174 34.7733 41.9731C38.936 44.4069 40.377 45.2234 40.5096 45.2234C40.5903 45.2234 41.0596 44.9867 41.5523 44.6975C42.045 44.4082 43.6172 43.4904 45.0459 42.6577C46.4746 41.825 47.6855 41.1038 47.7367 41.0549C47.8139 40.9814 41.1843 37.0344 40.6171 36.8162C40.5118 36.7757 38.9536 37.6115 36.8073 38.8596ZM48.5882 44.123C48.1985 44.3606 46.6789 45.2558 45.2113 46.1124C43.7438 46.9688 42.4274 47.7502 42.286 47.8486C42.0291 48.0275 42.029 48.0291 42.0616 52.2892L42.094 56.5506L45.0362 54.8219C46.6545 53.8711 48.2883 52.921 48.6671 52.7106L49.3557 52.3279V48C49.3557 45.6197 49.3425 43.6763 49.3262 43.6815C49.3099 43.6867 48.9778 43.8853 48.5882 44.123Z" fill="black"/>
</svg>
